<?xml version="1.0" encoding="UTF-8"?><svg id="OBJECTS" xmlns="http://www.w3.org/2000/svg" viewBox="0 0 873.47 260.21"><defs><style>.cls-1{opacity:.5;}.cls-2{fill:#fff;stroke-width:0px;}</style></defs><g class="cls-1"><path class="cls-2" d="m281.4,49.07c.77-.24,1.41-.14,1.94.29.53.43.7,1.08.5,1.94-1.25,8.34-4.56,14.96-9.93,19.85s-12.37,8.01-21.01,9.35c-15.83,2.49-37.21-.48-64.17-8.92-15.15-4.8-27.38-8.15-36.69-10.07-9.3-1.92-19.28-2.83-29.93-2.73-14.19.19-25.73,3.17-34.6,8.92-8.87,5.75-13.26,14.19-13.16,25.32.19,8.25,3.26,14.92,9.21,20,2.88,2.69,2.73,5.61-.43,8.78-2.97,2.97-6.43,4.41-10.36,4.32-2.3,0-4.17-.72-5.61-2.16-2.97-2.88-5.47-6.59-7.48-11.15-2.01-4.56-3.07-8.99-3.17-13.31-.1-10.45,3.17-19.88,9.78-28.27,6.62-8.39,15.03-14.77,25.25-19.13,10.21-4.36,20.98-6.64,32.3-6.83,12.47-.19,23.11.48,31.94,2.01,8.82,1.53,21.39,4.56,37.69,9.06,2.4.67,5.71,1.61,9.93,2.81,4.22,1.2,7.6,2.16,10.14,2.88,2.54.72,5.66,1.53,9.35,2.45,3.69.91,6.88,1.61,9.57,2.09,2.69.48,5.59.93,8.7,1.37,3.12.43,6.07.62,8.85.57,2.78-.05,5.47-.26,8.06-.65,11.32-1.73,18.56-7.43,21.72-17.12.29-.86.82-1.41,1.58-1.65Zm-112.7,72.01c.4-1.35-1.09-2.45-2.3-1.74-4.15,2.43-8.26,3.26-12.71,2.95-5.56-.38-10.17-3.36-15.63-3.79-3.62-.28-7.71.72-11.78,3.12.05-1.21,1.87-38.3,2.41-43.22.56-4.1-1.4-6.15-5.87-6.15-3.82.09-6.99,1.09-9.5,3-2.52,1.91-4.05,4.68-4.61,8.31-.93,7.08-3.1,69.43-4.11,85.92-1.32,21.7-10.78,37.81-23.06,37.81-5.66,0-11.93-2.56-15.65-7.69-3.73-5.12-5.5-10.99-5.31-17.61.09-1.96-.51-3.45-1.82-4.47-2.24-1.77-5.17-1.82-8.81-.14-3.91,1.77-5.87,4.47-5.87,8.11,0,3.45.76,6.84,2.24,10.2,5.96,13.56,20.56,19.29,34.24,19.29s24.55-4.63,31.45-13.91c6.9-9.27,11.22-23.49,12.58-42.98.61-8.79.97-18.33,1.24-25.36,9.58-2.71,16.42,5.06,28.3,3.06,7.32-1.23,12.51-7.76,14.59-14.72Z"/><path class="cls-2" d="m715.25,49.07c.77-.24,1.41-.14,1.94.29.53.43.7,1.08.5,1.94-1.25,8.34-4.56,14.96-9.93,19.85-5.37,4.89-12.37,8.01-21.01,9.35-15.83,2.49-37.21-.48-64.17-8.92-15.15-4.8-27.38-8.15-36.69-10.07-9.3-1.92-19.28-2.83-29.93-2.73-14.19.19-25.73,3.17-34.6,8.92-8.87,5.75-13.26,14.19-13.16,25.32.19,8.25,3.26,14.92,9.21,20,2.88,2.69,2.73,5.61-.43,8.78-2.97,2.97-6.43,4.41-10.36,4.32-2.3,0-4.17-.72-5.61-2.16-2.97-2.88-5.47-6.59-7.48-11.15-2.01-4.56-3.07-8.99-3.17-13.31-.1-10.45,3.17-19.88,9.78-28.27,6.62-8.39,15.03-14.77,25.25-19.13,10.21-4.36,20.98-6.64,32.3-6.83,12.47-.19,23.11.48,31.94,2.01,8.82,1.53,21.39,4.56,37.69,9.06,2.4.67,5.71,1.61,9.93,2.81,4.22,1.2,7.6,2.16,10.14,2.88,2.54.72,5.66,1.53,9.35,2.45,3.69.91,6.88,1.61,9.57,2.09,2.69.48,5.59.93,8.7,1.37,3.12.43,6.07.62,8.85.57,2.78-.05,5.47-.26,8.06-.65,11.32-1.73,18.56-7.43,21.72-17.12.29-.86.82-1.41,1.58-1.65Zm-112.7,72.01c.4-1.35-1.09-2.45-2.3-1.74-4.15,2.43-8.26,3.26-12.71,2.95-5.56-.38-10.17-3.36-15.63-3.79-3.62-.28-7.71.72-11.78,3.12.05-1.21,1.87-38.3,2.41-43.22.56-4.1-1.4-6.15-5.87-6.15-3.82.09-6.99,1.09-9.5,3-2.52,1.91-4.05,4.68-4.61,8.31-.93,7.08-3.1,69.43-4.11,85.92-1.32,21.7-10.78,37.81-23.06,37.81-5.66,0-11.93-2.56-15.65-7.69-3.73-5.12-5.5-10.99-5.31-17.61.09-1.96-.51-3.45-1.82-4.47-2.24-1.77-5.17-1.82-8.81-.14-3.91,1.77-5.87,4.47-5.87,8.11,0,3.45.76,6.84,2.24,10.2,5.96,13.56,20.56,19.29,34.24,19.29s24.55-4.63,31.45-13.91c6.9-9.27,11.22-23.49,12.58-42.98.61-8.79.97-18.33,1.24-25.36,9.58-2.71,16.42,5.06,28.3,3.06,7.32-1.23,12.51-7.76,14.59-14.72Z"/><path class="cls-2" d="m628.88,128.16c-7.42,0-15.58,21.26-15.58,38.32,0,15.21,2.6,21.88,5.93,21.88,4.45,0,8.65-9.15,11.43-18.81,2.14-7.44,3.43-16.45,3.9-22.73.29-3.95,2.97-5.69,6.8-5.69s9.89,3.46,9.89,9.64c0,21.02-8.9,49.2-30.54,49.2s-26.78-19.68-26.09-33.13c1.36-26.3,14.28-49.2,35.17-49.2,12.61,0,17.99,8.72,17.99,12.8s-2.72,6.3-7.32,6.86c-4.82.58-7.54-1.65-8.81-4.2-1.11-2.24-.5-4.95-2.78-4.95Z"/><path class="cls-2" d="m246.29,128.97c-5.66-2.1-15.44,19.86-15.44,36.63,0,14.94,2.09,21.75,8.3,22.87,6.58,1.18,18.34-8.76,24.57-18.4,3.23-5.01,5.03-6.87,9.46-5.65,3.17.88,4.69,5.19,1.48,10.39-7.97,12.94-14.16,24.33-35.79,24.33s-27.39-19.95-26.69-33.16c1.36-25.84,15.5-50.2,34.11-50.2,12.61,0,15.86,7.56,16.41,17.58.76,13.65-14,28.06-32.82,29.88-8.94.87-1.42-10.66,1.21-11.75,7.88-3.28,19.6-20.88,15.21-22.5Z"/><path class="cls-2" d="m354.39,127.48c-5.95-1.06-15.06,21.35-15.06,38.12,0,14.94,1.77,20.92,8.02,21.78,8.62,1.18,17.32-8.67,23.55-18.31,3.23-5.01,5.03-6.87,9.46-5.65,3.17.88,4.12,4.89,1.48,10.39-6.3,13.12-16.32,25.33-34.49,25.33-20.77,0-27.54-19.04-26.69-33.16,1.55-25.83,15.5-50.2,34.11-50.2,12.61,0,16.5,7.65,17.06,17.68.76,13.65-8.99,16.4-14.84,16.4-6.58,0-7.5-5.19-5.84-7.47,2.97-4.1,6.3-14.34,3.24-14.88Z"/><path class="cls-2" d="m408.02,127.94c-7.42,0-15.58,20.89-15.58,37.66,0,14.94,2.6,21.5,5.93,21.5,4.45,0,8.65-8.99,11.43-18.49,2.14-7.31,3.43-16.17,3.9-22.33.29-3.88,2.97-5.59,6.8-5.59s9.89,3.4,9.89,9.48c0,20.65-8.9,48.35-30.54,48.35s-26.78-19.34-26.09-32.56c1.36-25.84,14.28-48.35,35.17-48.35,12.61,0,17.99,8.56,17.99,12.57s-2.72,6.2-7.32,6.74-7.54-1.62-8.81-4.13c-1.11-2.2-.5-4.86-2.78-4.86Z"/><path class="cls-2" d="m688.2,128.16c-7.42,0-15.58,21.26-15.58,38.32,0,15.21,2.6,21.88,5.93,21.88,4.45,0,8.65-9.15,11.43-18.81,2.14-7.44,3.43-16.45,3.9-22.73.29-3.95,2.97-5.69,6.8-5.69s9.89,3.46,9.89,9.64c0,21.02-8.9,49.2-30.54,49.2s-26.78-19.68-26.09-33.13c1.36-26.3,14.28-49.2,35.17-49.2,12.61,0,17.99,8.72,17.99,12.8s-2.72,6.3-7.32,6.86c-4.82.58-7.54-1.65-8.81-4.2-1.11-2.24-.5-4.95-2.78-4.95Z"/><path class="cls-2" d="m760.9,141.15c-1.38,0-3.12-.37-4.79-.65,1.09-1.66,2.38-3,3.9-3.18,4.6-.56,2.98,1.54,1.41-2.23-3.46-8.28-10.76-15.08-17.31-15.08-16.81,0-28.69,21.58-30.54,47.84-.99,14.09,4.82,32.14,20.15,32.14,21.63,0,28.93-29.05,28.93-50.07,0-6.18,2.09-8.78-1.75-8.78Zm-14.57,21.88c-3.83,14.84-8.41,24.97-12.86,24.97-3.34,0-4.77-5.77-3.59-14.71,2.35-17.68,6.92-39.68,14.34-39.68,3.83,0,6.99,10.5,2.1,29.42Z"/><path class="cls-2" d="m751.51,135.58c1.85-18.42,7.45-43.6,9.18-49.53,1.73-5.93,5.16-6.59,9.61-6.22,4.45.37,8.04,4.33,8.04,10.26s-11.89,60.59-13.85,76.77c-1.29,10.63,1.1,17.68,4.82,17.68,2.83,0,5.8-7.19,8.95-13.07,2.8-5.22,4.78-5.6,8.24-5.6,9.52,0,5.81,11.13,1.11,17.8-4.7,6.68-10.26,12.61-17.8,12.61-5.69,0-14.71-2.1-18.91-12.98-4.2-10.88.62-47.72.62-47.72Z"/><path class="cls-2" d="m786.5,165.87c6.55,0,5.93,2.72,5.93,6.8s.84,13.56,6.89,13.56,14-7.38,14-14.92-6.06-13.85-14.46-16.69c-8.41-2.84-14.84-5.56-14.84-14.22s7.66-14.46,18.3-18.17c5.9-2.06,13.51-4.71,18.91-4.2,4.33.41,8.16,5.56,6.45,8.45-1.68,2.83-6.82,2.55-14.11,4.9-7.29,2.35-12.73,5.32-12.61,9.02.12,3.71,28.43,7.91,28.43,30.41s-21.26,28.31-30.78,28.31-20.65-5.07-20.65-20.52c0-9.15,5.34-12.73,8.53-12.73Z"/><path class="cls-2" d="m274.01,164.99c6.55,0,5.93,2.67,5.93,6.68s.84,13.32,6.89,13.32,14-7.25,14-14.66-6.06-13.61-14.46-16.4-14.84-5.47-14.84-13.97,7.66-14.21,18.3-17.86c5.9-2.02,13.51-4.63,18.91-4.13,4.33.4,8.16,5.47,6.45,8.3-1.68,2.78-6.82,2.51-14.11,4.82-7.29,2.31-12.73,5.22-12.61,8.87.12,3.64,28.43,7.77,28.43,29.88s-21.26,27.82-30.78,27.82-20.65-4.98-20.65-20.17c0-8.99,5.34-12.51,8.53-12.51Z"/><path class="cls-2" d="m186.48,190.02c-.35,4.61-5.7,7-9.64,7.29-4.95.36-9.18-2.07-9.18-8.5,0-8.99,8.44-36.57,9.06-45.8s-.25-22.72,6.8-23.57c7.05-.85,9.32,4.98,12.04,4.86s10.8-9.61,19.09-9.13c8.28.49,9.62,7.09,7.39,8.4-3.62,2.13-16.39,5.22-25.29,22.72-6.93,13.62-9.4,32.19-10.26,43.73Z"/></g></svg>